<?xml version="1.0" encoding="UTF-8"?>
<!DOCTYPE svg PUBLIC "-//W3C//DTD SVG 1.1//EN" "http://www.w3.org/Graphics/SVG/1.1/DTD/svg11.dtd">
<svg xmlns="http://www.w3.org/2000/svg" version="1.1" width="1181px" height="1181px" style="shape-rendering:geometricPrecision; text-rendering:geometricPrecision; image-rendering:optimizeQuality; fill-rule:evenodd; clip-rule:evenodd" xmlns:xlink="http://www.w3.org/1999/xlink">
<g><path style="opacity:1" fill="#fefefe" d="M -0.5,-0.5 C 393.167,-0.5 786.833,-0.5 1180.5,-0.5C 1180.5,393.167 1180.5,786.833 1180.5,1180.5C 786.833,1180.5 393.167,1180.5 -0.5,1180.5C -0.5,786.833 -0.5,393.167 -0.5,-0.5 Z"/></g>
<g><path style="opacity:1" fill="#030303" d="M 621.5,55.5 C 623.838,57.0395 626.505,57.7062 629.5,57.5C 650.553,65.0387 669.22,76.5387 685.5,92C 704.236,110.66 718.569,132.16 728.5,156.5C 731.864,157.211 734.197,156.044 735.5,153C 738.433,151.729 741.099,150.062 743.5,148C 748.401,146.675 753.401,146.175 758.5,146.5C 758.5,147.5 758.5,148.5 758.5,149.5C 757.5,149.5 756.5,149.5 755.5,149.5C 755.5,150.5 755.5,151.5 755.5,152.5C 761.172,150.016 767.172,148.683 773.5,148.5C 773.838,152.151 772.172,153.817 768.5,153.5C 767.596,154.209 767.263,155.209 767.5,156.5C 770.5,156.5 773.5,156.5 776.5,156.5C 777.976,158.709 777.309,160.042 774.5,160.5C 770.833,160.5 767.167,160.5 763.5,160.5C 763.5,161.5 763.5,162.5 763.5,163.5C 766.833,163.5 770.167,163.5 773.5,163.5C 773.5,164.5 773.5,165.5 773.5,166.5C 771.265,166.205 769.265,166.539 767.5,167.5C 766.944,170.553 765.111,171.886 762,171.5C 758.955,171.041 755.955,170.374 753,169.5C 746.842,170.602 740.675,170.602 734.5,169.5C 736.551,174.656 738.218,179.989 739.5,185.5C 739.41,188.152 740.076,190.485 741.5,192.5C 760.797,265.369 750.631,333.703 711,397.5C 692.16,426.009 666.994,446.842 635.5,460C 625.085,463.434 614.418,465.601 603.5,466.5C 593.464,466.304 583.464,465.637 573.5,464.5C 549.005,459.419 527.672,448.252 509.5,431C 488.894,410.233 472.894,386.4 461.5,359.5C 440.863,307.907 436.03,254.907 447,200.5C 450.222,192.006 452.722,183.339 454.5,174.5C 439.838,172.666 425.171,171.833 410.5,172C 408.752,170.13 406.585,168.963 404,168.5C 404,166.5 404,164.5 404,162.5C 400.906,162.207 399.406,160.541 399.5,157.5C 402.572,157.817 405.572,157.484 408.5,156.5C 406.896,154.821 406.229,152.821 406.5,150.5C 411.415,150.429 416.082,151.429 420.5,153.5C 421.167,153.167 421.833,152.833 422.5,152.5C 421.652,150.591 421.318,148.591 421.5,146.5C 426.525,147.841 431.525,149.341 436.5,151C 438.976,152.309 440.976,154.142 442.5,156.5C 449.468,157.497 456.468,157.83 463.5,157.5C 463.976,153.905 465.142,150.572 467,147.5C 470.657,141.021 474.49,134.688 478.5,128.5C 480.531,127.461 481.864,125.795 482.5,123.5C 498.456,99.0446 519.123,79.5446 544.5,65C 549.076,62.8765 553.743,61.0431 558.5,59.5C 561.152,59.5905 563.485,58.9238 565.5,57.5C 569.427,57.0743 573.093,56.0743 576.5,54.5C 591.551,51.7354 606.551,52.0687 621.5,55.5 Z"/></g>
<g><path style="opacity:1" fill="#5d5d5d" d="M 576.5,54.5 C 573.093,56.0743 569.427,57.0743 565.5,57.5C 568.763,55.4318 572.43,54.4318 576.5,54.5 Z"/></g>
<g><path style="opacity:1" fill="#818181" d="M 621.5,55.5 C 624.428,55.5651 627.095,56.2318 629.5,57.5C 626.505,57.7062 623.838,57.0395 621.5,55.5 Z"/></g>
<g><path style="opacity:1" fill="#535353" d="M 565.5,57.5 C 563.485,58.9238 561.152,59.5905 558.5,59.5C 560.515,58.0762 562.848,57.4095 565.5,57.5 Z"/></g>
<g><path style="opacity:1" fill="#202020" d="M 98.5,61.5 C 98.5,61.1667 98.5,60.8333 98.5,60.5C 197.167,60.5 295.833,60.5 394.5,60.5C 395.308,100.828 395.642,141.161 395.5,181.5C 392.287,181.81 389.287,181.477 386.5,180.5C 389.167,180.5 391.833,180.5 394.5,180.5C 394.556,140.829 394.222,101.162 393.5,61.5C 295.167,61.5 196.833,61.5 98.5,61.5 Z"/></g>
<g><path style="opacity:1" fill="#010101" d="M 98.5,61.5 C 196.833,61.5 295.167,61.5 393.5,61.5C 394.222,101.162 394.556,140.829 394.5,180.5C 391.833,180.5 389.167,180.5 386.5,180.5C 386.56,170.15 386.226,159.817 385.5,149.5C 385.698,144.25 385.031,139.25 383.5,134.5C 382.088,119.196 377.255,105.196 369,92.5C 364.474,87.4936 359.307,83.3269 353.5,80C 336.025,74.0505 318.025,71.2172 299.5,71.5C 293.69,70.5104 287.69,70.1771 281.5,70.5C 281.5,197.167 281.5,323.833 281.5,450.5C 295.167,450.5 308.833,450.5 322.5,450.5C 322.5,451.5 322.5,452.5 322.5,453.5C 321.539,455.265 321.205,457.265 321.5,459.5C 270.5,459.5 219.5,459.5 168.5,459.5C 168.5,456.5 168.5,453.5 168.5,450.5C 182.833,450.5 197.167,450.5 211.5,450.5C 211.833,323.999 211.5,197.666 210.5,71.5C 186.642,69.1213 163.309,71.9546 140.5,80C 125.755,88.0772 116.255,100.244 112,116.5C 110.331,124.521 108.664,132.521 107,140.5C 105.695,153.799 105.195,167.132 105.5,180.5C 102.167,180.5 98.8333,180.5 95.5,180.5C 96.3287,164.181 96.662,147.848 96.5,131.5C 97.2901,108.328 97.9567,84.9948 98.5,61.5 Z"/></g>
<g><path style="opacity:1" fill="#020202" d="M 1084.5,149.5 C 1085.17,159.486 1085.5,169.486 1085.5,179.5C 1084.05,206.212 1074.05,229.045 1055.5,248C 1033.51,267.505 1007.84,279.005 978.5,282.5C 961.756,284.129 945.089,283.796 928.5,281.5C 926.801,281.66 925.134,281.494 923.5,281C 918.337,278.631 913.337,276.131 908.5,273.5C 908.5,298.833 908.5,324.167 908.5,349.5C 907.502,382.996 907.168,416.663 907.5,450.5C 920.167,450.5 932.833,450.5 945.5,450.5C 945.5,453.5 945.5,456.5 945.5,459.5C 911.663,459.168 877.996,459.502 844.5,460.5C 831.167,460.5 817.833,460.5 804.5,460.5C 804.5,457.167 804.5,453.833 804.5,450.5C 816.5,450.5 828.5,450.5 840.5,450.5C 840.833,323.999 840.5,197.666 839.5,71.5C 827.678,70.5049 815.678,70.1716 803.5,70.5C 803.5,67.1667 803.5,63.8333 803.5,60.5C 852.168,60.3333 900.834,60.5 949.5,61C 982.101,60.4518 1012.77,67.7851 1041.5,83C 1065.39,99.0415 1079.72,121.208 1084.5,149.5 Z"/></g>
<g><path style="opacity:1" fill="#b5b5b5" d="M 585.5,63.5 C 592.989,62.3443 600.655,62.1777 608.5,63C 610.852,63.2401 612.852,64.0735 614.5,65.5C 605.026,63.7181 595.359,63.0515 585.5,63.5 Z"/></g>
<g><path style="opacity:1" fill="#fafafa" d="M 585.5,63.5 C 595.359,63.0515 605.026,63.7181 614.5,65.5C 617.949,66.4937 621.282,67.9937 624.5,70C 631.754,76.9167 638.587,84.0834 645,91.5C 656.59,110.294 663.756,130.627 666.5,152.5C 662.66,152.745 659.327,151.579 656.5,149C 646.238,146.703 635.905,146.036 625.5,147C 622.867,143.771 619.533,141.438 615.5,140C 611.12,138.893 606.787,137.726 602.5,136.5C 602.325,134.379 602.659,132.379 603.5,130.5C 605.834,128.824 606.834,126.491 606.5,123.5C 607.641,120.36 607.808,117.027 607,113.5C 606.617,112.944 606.117,112.611 605.5,112.5C 608.104,98.6807 602.437,91.6807 588.5,91.5C 585.481,91.6683 582.481,92.0016 579.5,92.5C 577.412,92.6198 576.078,93.6198 575.5,95.5C 574.206,96.2899 573.039,97.2899 572,98.5C 571.501,103.489 571.334,108.489 571.5,113.5C 569.12,114.463 568.12,116.297 568.5,119C 568.949,121.326 569.783,123.493 571,125.5C 572.011,126.337 573.178,126.67 574.5,126.5C 574.222,129.29 574.889,131.79 576.5,134C 576.164,135.03 575.497,135.53 574.5,135.5C 572.973,135.427 571.973,136.094 571.5,137.5C 566.651,140.09 561.651,142.424 556.5,144.5C 548.036,145.11 539.703,145.776 531.5,146.5C 528.784,146.386 526.784,147.386 525.5,149.5C 524.235,148.486 523.569,146.986 523.5,145C 527.718,125.937 534.885,108.104 545,91.5C 553.483,79.6738 564.317,70.8404 577.5,65C 580.117,64.1785 582.784,63.6785 585.5,63.5 Z"/></g>
<g><path style="opacity:1" fill="#fefefe" d="M 948.5,71.5 C 950.515,72.9238 952.848,73.5905 955.5,73.5C 956.167,73.5 956.833,73.5 957.5,73.5C 959.32,75.4484 961.654,76.4484 964.5,76.5C 985.712,83.0433 1001.05,96.3766 1010.5,116.5C 1010.43,118.027 1011.09,119.027 1012.5,119.5C 1013.66,123.647 1014.99,127.647 1016.5,131.5C 1016.41,134.152 1017.08,136.485 1018.5,138.5C 1018.5,139.167 1018.5,139.833 1018.5,140.5C 1018.29,143.495 1018.96,146.162 1020.5,148.5C 1020.5,149.833 1020.5,151.167 1020.5,152.5C 1020.69,169.515 1020.36,186.515 1019.5,203.5C 1015.39,224.812 1005.39,242.979 989.5,258C 968.409,273.015 945.409,276.682 920.5,269C 918.569,268.098 916.903,266.931 915.5,265.5C 914.172,263.281 912.172,261.948 909.5,261.5C 909.5,221.167 909.5,180.833 909.5,140.5C 909.333,118.497 909.5,96.4975 910,74.5C 910.374,73.5838 910.874,72.7504 911.5,72C 913.382,71.8019 915.048,71.3019 916.5,70.5C 927.178,69.3329 937.844,69.6662 948.5,71.5 Z"/></g>
<g><path style="opacity:1" fill="#616161" d="M 948.5,71.5 C 951.152,71.4095 953.485,72.0762 955.5,73.5C 952.848,73.5905 950.515,72.9238 948.5,71.5 Z"/></g>
<g><path style="opacity:1" fill="#9b9b9b" d="M 957.5,73.5 C 960.241,73.7073 962.574,74.7073 964.5,76.5C 961.654,76.4484 959.32,75.4484 957.5,73.5 Z"/></g>
<g><path style="opacity:1" fill="#9c9c9c" d="M 299.5,71.5 C 293.833,71.5 288.167,71.5 282.5,71.5C 282.5,197.5 282.5,323.5 282.5,449.5C 296.01,449.171 309.344,449.504 322.5,450.5C 308.833,450.5 295.167,450.5 281.5,450.5C 281.5,323.833 281.5,197.167 281.5,70.5C 287.69,70.1771 293.69,70.5104 299.5,71.5 Z"/></g>
<g><path style="opacity:1" fill="#808080" d="M 839.5,71.5 C 840.5,197.666 840.833,323.999 840.5,450.5C 828.5,450.5 816.5,450.5 804.5,450.5C 815.988,449.505 827.655,449.172 839.5,449.5C 839.5,323.5 839.5,197.5 839.5,71.5 Z"/></g>
<g><path style="opacity:1" fill="#9f9f9f" d="M 916.5,70.5 C 915.048,71.3019 913.382,71.8019 911.5,72C 910.874,72.7504 910.374,73.5838 910,74.5C 909.5,96.4975 909.333,118.497 909.5,140.5C 909.167,140.5 908.833,140.5 908.5,140.5C 908.333,117.498 908.5,94.4976 909,71.5C 911.381,70.565 913.881,70.2317 916.5,70.5 Z"/></g>
<g><path style="opacity:1" fill="#646464" d="M 575.5,95.5 C 575.315,97.1958 574.481,98.5291 573,99.5C 572.826,104.351 572.326,109.018 571.5,113.5C 571.334,108.489 571.501,103.489 572,98.5C 573.039,97.2899 574.206,96.2899 575.5,95.5 Z"/></g>
<g><path style="opacity:1" fill="#4a4a4a" d="M 98.5,60.5 C 98.5,60.8333 98.5,61.1667 98.5,61.5C 97.9567,84.9948 97.2901,108.328 96.5,131.5C 96.3334,110.831 96.5,90.164 97,69.5C 97.1805,66.3054 97.6805,63.3054 98.5,60.5 Z"/></g>
<g><path style="opacity:1" fill="#5a5a5a" d="M 605.5,112.5 C 606.117,112.611 606.617,112.944 607,113.5C 607.808,117.027 607.641,120.36 606.5,123.5C 606.677,119.766 606.344,116.099 605.5,112.5 Z"/></g>
<g><path style="opacity:1" fill="#747474" d="M 1010.5,116.5 C 1011.91,116.973 1012.57,117.973 1012.5,119.5C 1011.09,119.027 1010.43,118.027 1010.5,116.5 Z"/></g>
<g><path style="opacity:1" fill="#525252" d="M 482.5,123.5 C 481.864,125.795 480.531,127.461 478.5,128.5C 479.124,126.246 480.457,124.579 482.5,123.5 Z"/></g>
<g><path style="opacity:1" fill="#949494" d="M 606.5,123.5 C 606.834,126.491 605.834,128.824 603.5,130.5C 603.935,127.843 604.935,125.509 606.5,123.5 Z"/></g>
<g><path style="opacity:1" fill="#8c8c8c" d="M 1016.5,131.5 C 1017.92,133.515 1018.59,135.848 1018.5,138.5C 1017.08,136.485 1016.41,134.152 1016.5,131.5 Z"/></g>
<g><path style="opacity:1" fill="#717171" d="M 574.5,135.5 C 574.027,136.906 573.027,137.573 571.5,137.5C 571.973,136.094 572.973,135.427 574.5,135.5 Z"/></g>
<g><path style="opacity:1" fill="#484848" d="M 96.5,131.5 C 96.662,147.848 96.3287,164.181 95.5,180.5C 98.8333,180.5 102.167,180.5 105.5,180.5C 102.038,181.482 98.3714,181.815 94.5,181.5C 94.9101,164.666 95.5768,147.999 96.5,131.5 Z"/></g>
<g><path style="opacity:1" fill="#929292" d="M 556.5,144.5 C 556.389,145.117 556.056,145.617 555.5,146C 552.893,146.818 550.226,147.318 547.5,147.5C 542.193,146.724 536.86,146.391 531.5,146.5C 539.703,145.776 548.036,145.11 556.5,144.5 Z"/></g>
<g><path style="opacity:1" fill="#a1a1a1" d="M 383.5,134.5 C 385.031,139.25 385.698,144.25 385.5,149.5C 383.969,144.75 383.302,139.75 383.5,134.5 Z"/></g>
<g><path style="opacity:1" fill="#585858" d="M 531.5,146.5 C 529.75,147.87 527.75,148.87 525.5,149.5C 526.784,147.386 528.784,146.386 531.5,146.5 Z"/></g>
<g><path style="opacity:1" fill="#9f9f9f" d="M 1018.5,140.5 C 1019.77,142.905 1020.43,145.572 1020.5,148.5C 1018.96,146.162 1018.29,143.495 1018.5,140.5 Z"/></g>
<g><path style="opacity:1" fill="#767676" d="M 768.5,153.5 C 770.857,155.098 773.523,156.098 776.5,156.5C 773.5,156.5 770.5,156.5 767.5,156.5C 767.263,155.209 767.596,154.209 768.5,153.5 Z"/></g>
<g><path style="opacity:1" fill="#505050" d="M 774.5,160.5 C 774.5,162.833 774.5,165.167 774.5,167.5C 772.167,167.5 769.833,167.5 767.5,167.5C 769.265,166.539 771.265,166.205 773.5,166.5C 773.5,165.5 773.5,164.5 773.5,163.5C 770.167,163.5 766.833,163.5 763.5,163.5C 763.5,162.5 763.5,161.5 763.5,160.5C 767.167,160.5 770.833,160.5 774.5,160.5 Z"/></g>
<g><path style="opacity:1" fill="#4c4c4c" d="M 1084.5,149.5 C 1086.55,159.457 1086.88,169.457 1085.5,179.5C 1085.5,169.486 1085.17,159.486 1084.5,149.5 Z"/></g>
<g><path style="opacity:1" fill="#d6d6d6" d="M 1020.5,152.5 C 1023.27,169.553 1022.93,186.553 1019.5,203.5C 1020.36,186.515 1020.69,169.515 1020.5,152.5 Z"/></g>
<g><path style="opacity:1" fill="#fcfcfc" d="M 643.5,174.5 C 652.548,176.839 661.881,177.839 671.5,177.5C 676.161,222.353 677.661,267.353 676,312.5C 674.236,320.643 673.403,328.976 673.5,337.5C 672.087,340.219 671.42,343.219 671.5,346.5C 671.677,350.234 671.344,353.901 670.5,357.5C 668.754,362.572 667.754,367.905 667.5,373.5C 665.02,384.262 662.353,394.929 659.5,405.5C 658.094,405.973 657.427,406.973 657.5,408.5C 650.325,428.974 636.992,444.141 617.5,454C 615.414,454.315 613.414,454.815 611.5,455.5C 609.5,455.5 607.5,455.5 605.5,455.5C 605.5,452.833 605.5,450.167 605.5,447.5C 605.333,430.497 605.5,413.497 606,396.5C 606.099,394.347 606.933,392.681 608.5,391.5C 609.222,391.082 609.722,390.416 610,389.5C 610.497,386.854 610.664,384.187 610.5,381.5C 611.991,377.853 613.325,374.186 614.5,370.5C 615.649,370.209 616.316,369.376 616.5,368C 617.331,363.849 617.997,359.683 618.5,355.5C 618.817,351.298 618.483,347.298 617.5,343.5C 616.608,338.562 616.274,333.562 616.5,328.5C 616.303,323.259 617.803,318.593 621,314.5C 623.114,297.232 623.948,279.899 623.5,262.5C 624.659,252.342 624.825,242.008 624,231.5C 623.583,230.244 622.75,229.577 621.5,229.5C 621.573,227.973 620.906,226.973 619.5,226.5C 619.766,222.109 619.1,217.943 617.5,214C 618.354,210.459 619.354,206.959 620.5,203.5C 621.371,200.997 622.037,198.33 622.5,195.5C 624.61,190.941 626.943,186.608 629.5,182.5C 630.906,182.027 631.573,181.027 631.5,179.5C 632.092,176.873 632.425,174.206 632.5,171.5C 636.492,171.764 640.159,172.764 643.5,174.5 Z"/></g>
<g><path style="opacity:1" fill="#b4b4b4" d="M 522.5,175.5 C 525.984,174.835 529.651,174.501 533.5,174.5C 537.565,174.511 541.232,175.178 544.5,176.5C 537.254,175.536 529.92,175.203 522.5,175.5 Z"/></g>
<g><path style="opacity:1" fill="#fcfcfc" d="M 522.5,175.5 C 529.92,175.203 537.254,175.536 544.5,176.5C 547.389,180.064 549.389,184.064 550.5,188.5C 550.025,191.313 551.025,193.313 553.5,194.5C 555.416,197.598 557.583,200.598 560,203.5C 561.278,212.955 560.111,221.955 556.5,230.5C 555.732,231.263 555.232,232.263 555,233.5C 554.176,242.343 554.343,251.01 555.5,259.5C 556.013,271.829 556.513,284.163 557,296.5C 557.207,302.307 558.04,307.973 559.5,313.5C 559.565,316.428 560.232,319.095 561.5,321.5C 561.755,324.016 562.589,326.35 564,328.5C 564.351,346.636 566.017,364.636 569,382.5C 570.094,384.078 570.928,385.745 571.5,387.5C 571.723,391.162 572.723,394.495 574.5,397.5C 575.921,401.632 577.588,405.632 579.5,409.5C 579.759,423.847 580.759,437.847 582.5,451.5C 583.341,452.926 584.341,454.26 585.5,455.5C 584.081,456.451 582.415,456.784 580.5,456.5C 568.489,453.36 558.322,447.027 550,437.5C 545.416,431.331 541.083,424.997 537,418.5C 533.882,411.267 531.049,403.933 528.5,396.5C 527.871,393.603 526.871,390.936 525.5,388.5C 525.167,386.5 524.833,384.5 524.5,382.5C 523.671,377.846 522.837,373.18 522,368.5C 521.617,367.944 521.117,367.611 520.5,367.5C 519.167,359.165 517.833,350.832 516.5,342.5C 516.771,337.566 516.104,332.9 514.5,328.5C 512.085,307.892 511.085,287.058 511.5,266C 511.142,242.95 512.142,220.117 514.5,197.5C 516.322,190.749 517.322,183.749 517.5,176.5C 519.415,176.784 521.081,176.451 522.5,175.5 Z"/></g>
<g><path style="opacity:1" fill="#aeaeae" d="M 643.5,174.5 C 652.848,175.734 662.181,176.734 671.5,177.5C 661.881,177.839 652.548,176.839 643.5,174.5 Z"/></g>
<g><path style="opacity:1" fill="#7b7b7b" d="M 631.5,179.5 C 631.573,181.027 630.906,182.027 629.5,182.5C 629.427,180.973 630.094,179.973 631.5,179.5 Z"/></g>
<g><path style="opacity:1" fill="#505050" d="M 739.5,185.5 C 740.924,187.515 741.59,189.848 741.5,192.5C 740.076,190.485 739.41,188.152 739.5,185.5 Z"/></g>
<g><path style="opacity:1" fill="#e1e1e1" d="M 908.5,140.5 C 908.833,140.5 909.167,140.5 909.5,140.5C 909.5,180.833 909.5,221.167 909.5,261.5C 912.172,261.948 914.172,263.281 915.5,265.5C 913.229,264.316 910.895,263.316 908.5,262.5C 908.5,221.833 908.5,181.167 908.5,140.5 Z"/></g>
<g><path style="opacity:1" fill="#9b9b9b" d="M 517.5,176.5 C 517.322,183.749 516.322,190.749 514.5,197.5C 514.654,190.238 515.654,183.238 517.5,176.5 Z"/></g>
<g><path style="opacity:1" fill="#a1a1a1" d="M 550.5,188.5 C 551.492,190.456 552.492,192.456 553.5,194.5C 551.025,193.313 550.025,191.313 550.5,188.5 Z"/></g>
<g><path style="opacity:1" fill="#555555" d="M 622.5,195.5 C 622.037,198.33 621.371,200.997 620.5,203.5C 620.337,201.143 620.503,198.81 621,196.5C 621.383,195.944 621.883,195.611 622.5,195.5 Z"/></g>
<g><path style="opacity:1" fill="#787878" d="M 620.5,203.5 C 619.354,206.959 618.354,210.459 617.5,214C 619.1,217.943 619.766,222.109 619.5,226.5C 618.595,222.197 617.595,217.864 616.5,213.5C 616.211,209.426 617.544,206.092 620.5,203.5 Z"/></g>
<g><path style="opacity:1" fill="#9a9a9a" d="M 621.5,229.5 C 622.75,229.577 623.583,230.244 624,231.5C 624.825,242.008 624.659,252.342 623.5,262.5C 623.666,252.494 623.5,242.494 623,232.5C 622.487,231.473 621.987,230.473 621.5,229.5 Z"/></g>
<g><path style="opacity:1" fill="#575757" d="M 556.5,230.5 C 555.608,240.134 555.275,249.801 555.5,259.5C 554.343,251.01 554.176,242.343 555,233.5C 555.232,232.263 555.732,231.263 556.5,230.5 Z"/></g>
<g><path style="opacity:1" fill="#6a6a6a" d="M 928.5,281.5 C 945.089,283.796 961.756,284.129 978.5,282.5C 977.737,283.268 976.737,283.768 975.5,284C 961.833,284.667 948.167,284.667 934.5,284C 932.277,283.434 930.277,282.6 928.5,281.5 Z"/></g>
<g><path style="opacity:1" fill="#7c7c7c" d="M 592.5,317.5 C 592.453,314.432 591.953,311.432 591,308.5C 590.878,321.999 590.045,335.332 588.5,348.5C 587.838,346.696 587.505,344.696 587.5,342.5C 589.329,331.013 589.996,319.347 589.5,307.5C 590.5,307.5 591.5,307.5 592.5,307.5C 593.444,310.999 593.444,314.332 592.5,317.5 Z"/></g>
<g><path style="opacity:1" fill="#737373" d="M 559.5,313.5 C 561.04,315.838 561.706,318.505 561.5,321.5C 560.232,319.095 559.565,316.428 559.5,313.5 Z"/></g>
<g><path style="opacity:1" fill="#4d4d4d" d="M 616.5,328.5 C 616.274,333.562 616.608,338.562 617.5,343.5C 616.883,343.389 616.383,343.056 616,342.5C 615.185,337.648 615.352,332.981 616.5,328.5 Z"/></g>
<g><path style="opacity:1" fill="#e0e0e0" d="M 592.5,317.5 C 592.412,325.676 592.912,333.676 594,341.5C 592.784,343.962 592.118,346.629 592,349.5C 590.421,350.8 589.255,350.466 588.5,348.5C 590.045,335.332 590.878,321.999 591,308.5C 591.953,311.432 592.453,314.432 592.5,317.5 Z"/></g>
<g><path style="opacity:1" fill="#989898" d="M 514.5,328.5 C 516.104,332.9 516.771,337.566 516.5,342.5C 515.356,338.036 514.69,333.37 514.5,328.5 Z"/></g>
<g><path style="opacity:1" fill="#939393" d="M 673.5,337.5 C 673.58,340.781 672.913,343.781 671.5,346.5C 671.42,343.219 672.087,340.219 673.5,337.5 Z"/></g>
<g><path style="opacity:1" fill="#9e9e9e" d="M 670.5,357.5 C 670.42,363.125 669.42,368.458 667.5,373.5C 667.754,367.905 668.754,362.572 670.5,357.5 Z"/></g>
<g><path style="opacity:1" fill="#b8b8b8" d="M 618.5,355.5 C 617.997,359.683 617.331,363.849 616.5,368C 616.316,369.376 615.649,370.209 614.5,370.5C 615.468,365.346 616.801,360.346 618.5,355.5 Z"/></g>
<g><path style="opacity:1" fill="#b9b9b9" d="M 520.5,367.5 C 521.117,367.611 521.617,367.944 522,368.5C 522.837,373.18 523.671,377.846 524.5,382.5C 522.429,377.799 521.096,372.799 520.5,367.5 Z"/></g>
<g><path style="opacity:1" fill="#9f9f9f" d="M 610.5,381.5 C 610.664,384.187 610.497,386.854 610,389.5C 609.722,390.416 609.222,391.082 608.5,391.5C 608.753,387.96 609.419,384.627 610.5,381.5 Z"/></g>
<g><path style="opacity:1" fill="#9b9b9b" d="M 571.5,387.5 C 573.277,390.505 574.277,393.838 574.5,397.5C 572.723,394.495 571.723,391.162 571.5,387.5 Z"/></g>
<g><path style="opacity:1" fill="#585858" d="M 525.5,388.5 C 526.871,390.936 527.871,393.603 528.5,396.5C 526.018,394.497 525.018,391.831 525.5,388.5 Z"/></g>
<g><path style="opacity:1" fill="#7b7b7b" d="M 659.5,405.5 C 659.573,407.027 658.906,408.027 657.5,408.5C 657.427,406.973 658.094,405.973 659.5,405.5 Z"/></g>
<g><path style="opacity:1" fill="#9c9c9c" d="M 579.5,409.5 C 580.222,409.918 580.722,410.584 581,411.5C 581.185,424.908 581.685,438.242 582.5,451.5C 580.759,437.847 579.759,423.847 579.5,409.5 Z"/></g>
<g><path style="opacity:1" fill="#878787" d="M 210.5,71.5 C 211.5,197.666 211.833,323.999 211.5,450.5C 197.167,450.5 182.833,450.5 168.5,450.5C 182.323,449.504 196.323,449.171 210.5,449.5C 210.5,323.5 210.5,197.5 210.5,71.5 Z"/></g>
<g><path style="opacity:1" fill="#9f9f9f" d="M 908.5,349.5 C 908.5,382.833 908.5,416.167 908.5,449.5C 921.344,449.171 934.011,449.505 946.5,450.5C 946.167,450.5 945.833,450.5 945.5,450.5C 932.833,450.5 920.167,450.5 907.5,450.5C 907.168,416.663 907.502,382.996 908.5,349.5 Z"/></g>
<g><path style="opacity:1" fill="#a4a4a4" d="M 605.5,447.5 C 605.5,450.167 605.5,452.833 605.5,455.5C 607.5,455.5 609.5,455.5 611.5,455.5C 609.401,456.612 607.067,457.279 604.5,457.5C 604.187,453.958 604.521,450.625 605.5,447.5 Z"/></g>
<g><path style="opacity:1" fill="#626262" d="M 585.5,455.5 C 586.376,455.369 587.043,455.702 587.5,456.5C 585.027,457.797 582.693,457.797 580.5,456.5C 582.415,456.784 584.081,456.451 585.5,455.5 Z"/></g>
<g><path style="opacity:1" fill="#373737" d="M 322.5,453.5 C 322.5,455.833 322.5,458.167 322.5,460.5C 270.997,460.832 219.664,460.499 168.5,459.5C 219.5,459.5 270.5,459.5 321.5,459.5C 321.205,457.265 321.539,455.265 322.5,453.5 Z"/></g>
<g><path style="opacity:1" fill="#303030" d="M 945.5,450.5 C 945.833,450.5 946.167,450.5 946.5,450.5C 946.5,453.833 946.5,457.167 946.5,460.5C 912.5,460.5 878.5,460.5 844.5,460.5C 877.996,459.502 911.663,459.168 945.5,459.5C 945.5,456.5 945.5,453.5 945.5,450.5 Z"/></g>
<g><path style="opacity:1" fill="#505050" d="M 573.5,464.5 C 583.464,465.637 593.464,466.304 603.5,466.5C 593.371,468.048 583.371,467.382 573.5,464.5 Z"/></g>
<g><path style="opacity:1" fill="#4a4a4a" d="M 160.5,559.5 C 129.833,559.5 99.1667,559.5 68.5,559.5C 68.5,561.167 68.5,562.833 68.5,564.5C 67.5386,562.735 67.2053,560.735 67.5,558.5C 98.6712,558.169 129.671,558.502 160.5,559.5 Z"/></g>
<g><path style="opacity:1" fill="#4a4a4a" d="M 280.5,559.5 C 343.331,558.501 406.331,558.168 469.5,558.5C 469.5,579.167 469.5,599.833 469.5,620.5C 467.265,620.795 465.265,620.461 463.5,619.5C 465.167,619.5 466.833,619.5 468.5,619.5C 468.5,599.5 468.5,579.5 468.5,559.5C 405.833,559.5 343.167,559.5 280.5,559.5 Z"/></g>
<g><path style="opacity:1" fill="#4d4d4d" d="M 577.5,559.5 C 547.167,559.5 516.833,559.5 486.5,559.5C 486.5,561.167 486.5,562.833 486.5,564.5C 493.022,564.177 499.355,564.51 505.5,565.5C 498.833,565.5 492.167,565.5 485.5,565.5C 485.5,563.167 485.5,560.833 485.5,558.5C 516.338,558.169 547.005,558.502 577.5,559.5 Z"/></g>
<g><path style="opacity:1" fill="#494949" d="M 696.5,564.5 C 696.5,562.833 696.5,561.167 696.5,559.5C 673.833,559.5 651.167,559.5 628.5,559.5C 628.5,561.167 628.5,562.833 628.5,564.5C 627.539,562.735 627.205,560.735 627.5,558.5C 650.833,558.5 674.167,558.5 697.5,558.5C 697.795,560.735 697.461,562.735 696.5,564.5 Z"/></g>
<g><path style="opacity:1" fill="#474747" d="M 894.5,606.5 C 893.504,591.009 893.17,575.342 893.5,559.5C 831.167,559.5 768.833,559.5 706.5,559.5C 706.5,561.5 706.5,563.5 706.5,565.5C 705.532,563.393 705.198,561.059 705.5,558.5C 768.5,558.5 831.5,558.5 894.5,558.5C 894.5,574.5 894.5,590.5 894.5,606.5 Z"/></g>
<g><path style="opacity:1" fill="#070707" d="M 160.5,559.5 C 160.5,561.167 160.5,562.833 160.5,564.5C 151.833,564.5 143.167,564.5 134.5,564.5C 134.167,644.002 134.501,723.335 135.5,802.5C 157.169,802.667 178.836,802.5 200.5,802C 220.678,801.822 234.511,792.322 242,773.5C 244.917,761.332 246.75,748.999 247.5,736.5C 248.477,733.713 248.81,730.713 248.5,727.5C 249.833,727.5 251.167,727.5 252.5,727.5C 252.169,754.339 252.502,781.005 253.5,807.5C 253.5,807.833 253.5,808.167 253.5,808.5C 191.833,808.5 130.167,808.5 68.5,808.5C 68.5,806.833 68.5,805.167 68.5,803.5C 76.3516,803.825 84.0182,803.492 91.5,802.5C 91.5,723.167 91.5,643.833 91.5,564.5C 83.8333,564.5 76.1667,564.5 68.5,564.5C 68.5,562.833 68.5,561.167 68.5,559.5C 99.1667,559.5 129.833,559.5 160.5,559.5 Z"/></g>
<g><path style="opacity:1" fill="#020202" d="M 280.5,559.5 C 343.167,559.5 405.833,559.5 468.5,559.5C 468.5,579.5 468.5,599.5 468.5,619.5C 466.833,619.5 465.167,619.5 463.5,619.5C 461.442,596.265 449.775,579.765 428.5,570C 422.608,568.355 416.608,567.355 410.5,567C 388.836,566.5 367.169,566.333 345.5,566.5C 344.502,603.33 344.168,640.33 344.5,677.5C 353.349,677.826 362.016,677.493 370.5,676.5C 382.089,677.381 390.923,673.047 397,663.5C 399.283,658.036 400.783,652.369 401.5,646.5C 402.483,642.702 402.817,638.702 402.5,634.5C 404.5,634.5 406.5,634.5 408.5,634.5C 408.5,665.833 408.5,697.167 408.5,728.5C 406.5,728.5 404.5,728.5 402.5,728.5C 402.751,717.259 400.584,706.593 396,696.5C 391.955,690.784 386.455,687.617 379.5,687C 368.172,686.5 356.838,686.333 345.5,686.5C 344.501,724.996 344.168,763.663 344.5,802.5C 365.34,802.831 386.007,802.497 406.5,801.5C 418.369,801.156 429.702,798.322 440.5,793C 450.132,785.546 456.632,776.046 460,764.5C 461.963,754.928 463.129,745.261 463.5,735.5C 465.167,735.5 466.833,735.5 468.5,735.5C 468.5,759.833 468.5,784.167 468.5,808.5C 405.833,808.5 343.167,808.5 280.5,808.5C 280.5,806.5 280.5,804.5 280.5,802.5C 287.255,803.123 293.588,802.456 299.5,800.5C 299.5,722.167 299.5,643.833 299.5,565.5C 293.5,565.5 287.5,565.5 281.5,565.5C 280.539,563.735 280.205,561.735 280.5,559.5 Z"/></g>
<g><path style="opacity:1" fill="#050505" d="M 577.5,559.5 C 577.5,561.167 577.5,562.833 577.5,564.5C 569.833,564.5 562.167,564.5 554.5,564.5C 571.042,621.996 588.208,679.329 606,736.5C 621.036,693.029 635.703,649.362 650,605.5C 652.757,596.206 654.924,586.706 656.5,577C 655.73,571.559 652.73,567.892 647.5,566C 641.204,564.988 634.871,564.488 628.5,564.5C 628.5,562.833 628.5,561.167 628.5,559.5C 651.167,559.5 673.833,559.5 696.5,559.5C 696.5,561.167 696.5,562.833 696.5,564.5C 689.322,565.167 681.989,565.833 674.5,566.5C 671.534,569.091 669.034,572.091 667,575.5C 661.304,593.973 655.471,612.306 649.5,630.5C 647.903,632.848 646.903,635.514 646.5,638.5C 626.419,698.099 606.919,758.099 588,818.5C 567.495,755.808 546.995,693.141 526.5,630.5C 526.741,628.102 526.074,626.102 524.5,624.5C 523.793,620.752 522.793,617.086 521.5,613.5C 521.573,611.973 520.906,610.973 519.5,610.5C 518.982,606.453 518.148,602.453 517,598.5C 513.013,587.554 509.18,576.554 505.5,565.5C 499.355,564.51 493.022,564.177 486.5,564.5C 486.5,562.833 486.5,561.167 486.5,559.5C 516.833,559.5 547.167,559.5 577.5,559.5 Z"/></g>
<g><path style="opacity:1" fill="#060606" d="M 894.5,606.5 C 894.5,611.167 894.5,615.833 894.5,620.5C 892.5,620.5 890.5,620.5 888.5,620.5C 886.459,592.957 872.126,575.457 845.5,568C 842.183,567.502 838.85,567.335 835.5,567.5C 814.006,566.503 792.34,566.169 770.5,566.5C 770.5,603.5 770.5,640.5 770.5,677.5C 778.684,677.826 786.684,677.492 794.5,676.5C 811.365,677.46 821.865,669.793 826,653.5C 827.257,647.231 827.757,640.898 827.5,634.5C 829.5,634.5 831.5,634.5 833.5,634.5C 833.5,665.833 833.5,697.167 833.5,728.5C 831.5,728.5 829.5,728.5 827.5,728.5C 828.335,716.85 826.168,705.85 821,695.5C 815.897,690.365 809.73,687.532 802.5,687C 792.172,686.5 781.839,686.334 771.5,686.5C 770.501,724.663 770.168,762.996 770.5,801.5C 795.38,802.339 820.38,802.672 845.5,802.5C 846.696,802.154 846.696,801.654 845.5,801C 846.737,800.768 847.737,800.268 848.5,799.5C 867.89,794.948 880.39,782.948 886,763.5C 887.872,753.922 888.705,744.255 888.5,734.5C 890.5,734.5 892.5,734.5 894.5,734.5C 894.5,759.167 894.5,783.833 894.5,808.5C 831.833,808.5 769.167,808.5 706.5,808.5C 706.5,806.833 706.5,805.167 706.5,803.5C 712.358,803.822 718.025,803.489 723.5,802.5C 724.499,723.668 724.833,644.668 724.5,565.5C 718.5,565.5 712.5,565.5 706.5,565.5C 706.5,563.5 706.5,561.5 706.5,559.5C 768.833,559.5 831.167,559.5 893.5,559.5C 893.17,575.342 893.504,591.009 894.5,606.5 Z"/></g>
<g><path style="opacity:1" fill="#060606" d="M 1100.5,768.5 C 1101.92,766.485 1102.59,764.152 1102.5,761.5C 1104.1,749.898 1104.77,738.232 1104.5,726.5C 1106.5,726.5 1108.5,726.5 1110.5,726.5C 1110.5,754.167 1110.5,781.833 1110.5,809.5C 1048.83,809.5 987.167,809.5 925.5,809.5C 925.5,807.167 925.5,804.833 925.5,802.5C 933.5,802.5 941.5,802.5 949.5,802.5C 949.667,723.499 949.5,644.499 949,565.5C 941.253,564.518 933.42,564.185 925.5,564.5C 925.5,562.5 925.5,560.5 925.5,558.5C 956.167,558.5 986.833,558.5 1017.5,558.5C 1017.5,560.5 1017.5,562.5 1017.5,564.5C 1008.83,564.5 1000.17,564.5 991.5,564.5C 991.5,643.833 991.5,723.167 991.5,802.5C 1013.17,802.667 1034.84,802.5 1056.5,802C 1079.87,802.159 1094.54,790.992 1100.5,768.5 Z"/></g>
<g><path style="opacity:1" fill="#adadad" d="M 281.5,565.5 C 287.5,565.5 293.5,565.5 299.5,565.5C 299.5,643.833 299.5,722.167 299.5,800.5C 298.501,722.668 298.167,644.668 298.5,566.5C 292.642,566.822 286.975,566.489 281.5,565.5 Z"/></g>
<g><path style="opacity:1" fill="#dddddd" d="M 835.5,567.5 C 814.167,567.5 792.833,567.5 771.5,567.5C 771.5,603.833 771.5,640.167 771.5,676.5C 779.167,676.5 786.833,676.5 794.5,676.5C 786.684,677.492 778.684,677.826 770.5,677.5C 770.5,640.5 770.5,603.5 770.5,566.5C 792.34,566.169 814.006,566.503 835.5,567.5 Z"/></g>
<g><path style="opacity:1" fill="#cfcfcf" d="M 160.5,564.5 C 152.35,565.493 144.017,565.826 135.5,565.5C 135.5,644.5 135.5,723.5 135.5,802.5C 134.501,723.335 134.167,644.002 134.5,564.5C 143.167,564.5 151.833,564.5 160.5,564.5 Z"/></g>
<g><path style="opacity:1" fill="#dddddd" d="M 706.5,565.5 C 712.5,565.5 718.5,565.5 724.5,565.5C 724.833,644.668 724.499,723.668 723.5,802.5C 723.5,723.833 723.5,645.167 723.5,566.5C 717.642,566.822 711.975,566.489 706.5,565.5 Z"/></g>
<g><path style="opacity:1" fill="#888888" d="M 345.5,566.5 C 345.5,603.167 345.5,639.833 345.5,676.5C 353.833,676.5 362.167,676.5 370.5,676.5C 362.016,677.493 353.349,677.826 344.5,677.5C 344.168,640.33 344.502,603.33 345.5,566.5 Z"/></g>
<g><path style="opacity:1" fill="#7c7c7c" d="M 519.5,610.5 C 520.906,610.973 521.573,611.973 521.5,613.5C 520.094,613.027 519.427,612.027 519.5,610.5 Z"/></g>
<g><path style="opacity:1" fill="#9e9e9e" d="M 524.5,624.5 C 526.074,626.102 526.741,628.102 526.5,630.5C 524.926,628.898 524.259,626.898 524.5,624.5 Z"/></g>
<g><path style="opacity:1" fill="#acacac" d="M 408.5,634.5 C 406.5,634.5 404.5,634.5 402.5,634.5C 402.817,638.702 402.483,642.702 401.5,646.5C 401.5,642.167 401.5,637.833 401.5,633.5C 404.059,633.198 406.393,633.532 408.5,634.5 Z"/></g>
<g><path style="opacity:1" fill="#808080" d="M 649.5,630.5 C 649.397,633.636 648.397,636.302 646.5,638.5C 646.903,635.514 647.903,632.848 649.5,630.5 Z"/></g>
<g><path style="opacity:1" fill="#e6e6e6" d="M 771.5,686.5 C 771.5,724.5 771.5,762.5 771.5,800.5C 784.344,800.171 797.011,800.505 809.5,801.5C 796.5,801.5 783.5,801.5 770.5,801.5C 770.168,762.996 770.501,724.663 771.5,686.5 Z"/></g>
<g><path style="opacity:1" fill="#2c2c2c" d="M 253.5,807.5 C 252.502,781.005 252.169,754.339 252.5,727.5C 251.167,727.5 249.833,727.5 248.5,727.5C 248.81,730.713 248.477,733.713 247.5,736.5C 247.5,733.167 247.5,729.833 247.5,726.5C 249.5,726.5 251.5,726.5 253.5,726.5C 253.5,753.5 253.5,780.5 253.5,807.5 Z"/></g>
<g><path style="opacity:1" fill="#565656" d="M 1102.5,761.5 C 1102.59,764.152 1101.92,766.485 1100.5,768.5C 1100.41,765.848 1101.08,763.515 1102.5,761.5 Z"/></g>
<g><path style="opacity:1" fill="#4c4c4c" d="M 345.5,686.5 C 345.5,724.833 345.5,763.167 345.5,801.5C 365.833,801.5 386.167,801.5 406.5,801.5C 386.007,802.497 365.34,802.831 344.5,802.5C 344.168,763.663 344.501,724.996 345.5,686.5 Z"/></g>
<g><path style="opacity:1" fill="#262626" d="M 848.5,799.5 C 847.737,800.268 846.737,800.768 845.5,801C 846.696,801.654 846.696,802.154 845.5,802.5C 820.38,802.672 795.38,802.339 770.5,801.5C 783.5,801.5 796.5,801.5 809.5,801.5C 822.546,801.531 835.546,800.864 848.5,799.5 Z"/></g>
<g><path style="opacity:1" fill="#474747" d="M 91.5,802.5 C 84.0182,803.492 76.3516,803.825 68.5,803.5C 68.5,805.167 68.5,806.833 68.5,808.5C 130.167,808.5 191.833,808.5 253.5,808.5C 191.669,809.499 129.669,809.832 67.5,809.5C 67.5,807.167 67.5,804.833 67.5,802.5C 75.5,802.5 83.5,802.5 91.5,802.5 Z"/></g>
<g><path style="opacity:1" fill="#454545" d="M 463.5,735.5 C 465.265,734.539 467.265,734.205 469.5,734.5C 469.5,759.5 469.5,784.5 469.5,809.5C 406.331,809.832 343.331,809.499 280.5,808.5C 343.167,808.5 405.833,808.5 468.5,808.5C 468.5,784.167 468.5,759.833 468.5,735.5C 466.833,735.5 465.167,735.5 463.5,735.5 Z"/></g>
<g><path style="opacity:1" fill="#444444" d="M 723.5,802.5 C 718.025,803.489 712.358,803.822 706.5,803.5C 706.5,805.167 706.5,806.833 706.5,808.5C 769.167,808.5 831.833,808.5 894.5,808.5C 831.669,809.499 768.669,809.832 705.5,809.5C 705.5,807.167 705.5,804.833 705.5,802.5C 711.5,802.5 717.5,802.5 723.5,802.5 Z"/></g>
<g><path style="opacity:1" fill="#050505" d="M 754.5,1119.5 C 759.64,1120.49 764.974,1120.82 770.5,1120.5C 770.5,1122.17 770.5,1123.83 770.5,1125.5C 740.833,1125.5 711.167,1125.5 681.5,1125.5C 681.025,1122.92 681.692,1120.92 683.5,1119.5C 690.982,1120.49 698.648,1120.83 706.5,1120.5C 706.784,1118.59 706.451,1116.92 705.5,1115.5C 698.035,1091.56 690.369,1067.73 682.5,1044C 660.503,1043.5 638.503,1043.33 616.5,1043.5C 610.711,1061.65 605.378,1079.98 600.5,1098.5C 598.473,1102.74 598.139,1107.07 599.5,1111.5C 599.859,1113.37 600.859,1114.87 602.5,1116C 611.197,1119.15 620.197,1120.32 629.5,1119.5C 629.5,1121.5 629.5,1123.5 629.5,1125.5C 607.167,1125.5 584.833,1125.5 562.5,1125.5C 562.5,1123.5 562.5,1121.5 562.5,1119.5C 569.804,1119.96 576.804,1118.79 583.5,1116C 586.273,1113.62 588.439,1110.78 590,1107.5C 614.05,1030.01 637.717,952.345 661,874.5C 663.213,873.24 665.713,872.574 668.5,872.5C 671.089,872.527 673.589,872.861 676,873.5C 701.832,955.501 727.999,1037.5 754.5,1119.5 Z"/></g>
<g><path style="opacity:1" fill="#262626" d="M 544.5,936.5 C 544.5,916.5 544.5,896.5 544.5,876.5C 482.167,876.5 419.833,876.5 357.5,876.5C 357.5,878.167 357.5,879.833 357.5,881.5C 357.167,881.5 356.833,881.5 356.5,881.5C 356.5,879.5 356.5,877.5 356.5,875.5C 419.5,875.5 482.5,875.5 545.5,875.5C 545.83,896.007 545.497,916.34 544.5,936.5 Z"/></g>
<g><path style="opacity:1" fill="#040404" d="M 325.5,918.5 C 325.889,915.447 325.223,912.78 323.5,910.5C 319.496,894.457 309.163,885.291 292.5,883C 289.518,882.502 286.518,882.335 283.5,882.5C 276.352,881.508 269.019,881.175 261.5,881.5C 261.5,960.833 261.5,1040.17 261.5,1119.5C 270.167,1119.5 278.833,1119.5 287.5,1119.5C 287.5,1121.5 287.5,1123.5 287.5,1125.5C 255.5,1125.5 223.5,1125.5 191.5,1125.5C 191.5,1123.83 191.5,1122.17 191.5,1120.5C 200.349,1120.83 209.016,1120.49 217.5,1119.5C 217.833,1040.33 217.499,961.332 216.5,882.5C 208.677,881.344 200.677,881.177 192.5,882C 166.113,885.4 152.613,900.566 152,927.5C 151.5,935.159 151.334,942.826 151.5,950.5C 149.5,950.5 147.5,950.5 145.5,950.5C 145.5,937.167 145.5,923.833 145.5,910.5C 145.5,898.833 145.5,887.167 145.5,875.5C 207.833,875.5 270.167,875.5 332.5,875.5C 333.146,900.495 333.479,925.495 333.5,950.5C 331.5,950.5 329.5,950.5 327.5,950.5C 327.899,939.614 327.233,928.947 325.5,918.5 Z"/></g>
<g><path style="opacity:1" fill="#030303" d="M 544.5,936.5 C 542.5,936.5 540.5,936.5 538.5,936.5C 538.81,933.287 538.477,930.287 537.5,927.5C 537.279,924.933 536.612,922.599 535.5,920.5C 527.572,897.26 511.239,884.927 486.5,883.5C 464.673,882.503 442.673,882.169 420.5,882.5C 420.168,919.67 420.502,956.67 421.5,993.5C 432.864,993.743 444.198,993.41 455.5,992.5C 457.527,992.662 459.527,992.495 461.5,992C 462.056,991.617 462.389,991.117 462.5,990.5C 471.478,984.225 476.645,975.559 478,964.5C 478.499,959.845 478.666,955.179 478.5,950.5C 480.735,950.205 482.735,950.539 484.5,951.5C 484.5,982.5 484.5,1013.5 484.5,1044.5C 482.5,1044.5 480.5,1044.5 478.5,1044.5C 478.821,1038.97 478.488,1033.64 477.5,1028.5C 476.231,1017.27 470.565,1009.27 460.5,1004.5C 452.577,1003.04 444.577,1002.37 436.5,1002.5C 431.322,1002.5 426.322,1002.83 421.5,1003.5C 420.501,1041.66 420.168,1080 420.5,1118.5C 442.673,1118.83 464.673,1118.5 486.5,1117.5C 486.833,1117.5 487.167,1117.5 487.5,1117.5C 492.887,1117.59 498.22,1117.09 503.5,1116C 504.056,1115.62 504.389,1115.12 504.5,1114.5C 524.742,1107.4 535.909,1093.06 538,1071.5C 538.5,1065.18 538.666,1058.84 538.5,1052.5C 540.5,1052.5 542.5,1052.5 544.5,1052.5C 544.5,1076.83 544.5,1101.17 544.5,1125.5C 481.833,1125.5 419.167,1125.5 356.5,1125.5C 356.5,1123.5 356.5,1121.5 356.5,1119.5C 363.255,1120.12 369.588,1119.46 375.5,1117.5C 375.5,1038.83 375.5,960.167 375.5,881.5C 369.5,881.5 363.5,881.5 357.5,881.5C 357.5,879.833 357.5,878.167 357.5,876.5C 419.833,876.5 482.167,876.5 544.5,876.5C 544.5,896.5 544.5,916.5 544.5,936.5 Z"/></g>
<g><path style="opacity:1" fill="#050505" d="M 1017.5,882.5 C 1016.17,961.5 1016.17,1040.5 1017.5,1119.5C 1023.64,1120.49 1029.98,1120.82 1036.5,1120.5C 1036.5,1122.17 1036.5,1123.83 1036.5,1125.5C 1007.83,1125.5 979.167,1125.5 950.5,1125.5C 950.5,1123.5 950.5,1121.5 950.5,1119.5C 957.5,1119.5 964.5,1119.5 971.5,1119.5C 971.5,1052.17 971.5,984.833 971.5,917.5C 970.178,917.33 969.011,917.663 968,918.5C 950.698,970.059 933.198,1021.39 915.5,1072.5C 914.076,1074.51 913.41,1076.85 913.5,1079.5C 908.132,1092.94 903.132,1106.61 898.5,1120.5C 873.787,1051.54 849.454,982.538 825.5,913.5C 824.167,913.5 822.833,913.5 821.5,913.5C 821.333,977.168 821.5,1040.83 822,1104.5C 822.198,1107.7 823.031,1110.7 824.5,1113.5C 827.205,1115.85 830.205,1117.68 833.5,1119C 840.492,1119.5 847.492,1119.67 854.5,1119.5C 854.5,1121.5 854.5,1123.5 854.5,1125.5C 831.167,1125.5 807.833,1125.5 784.5,1125.5C 784.5,1123.5 784.5,1121.5 784.5,1119.5C 790.026,1119.82 795.36,1119.49 800.5,1118.5C 808.564,1118.61 813.064,1114.61 814,1106.5C 815.935,1033.17 815.935,959.836 814,886.5C 813.727,884.899 813.227,883.399 812.5,882C 803.506,881.5 794.506,881.334 785.5,881.5C 785.5,879.5 785.5,877.5 785.5,875.5C 809.833,875.5 834.167,875.5 858.5,875.5C 877.439,932.025 896.939,988.358 917,1044.5C 936.054,988.225 955.387,932.225 975,876.5C 995.758,875.507 1016.59,875.173 1037.5,875.5C 1037.5,877.5 1037.5,879.5 1037.5,881.5C 1030.65,881.176 1023.98,881.509 1017.5,882.5 Z"/></g>
<g><path style="opacity:1" fill="#757575" d="M 486.5,883.5 C 464.833,883.5 443.167,883.5 421.5,883.5C 421.5,920.167 421.5,956.833 421.5,993.5C 420.502,956.67 420.168,919.67 420.5,882.5C 442.673,882.169 464.673,882.503 486.5,883.5 Z"/></g>
<g><path style="opacity:1" fill="#cdcdcd" d="M 1017.5,882.5 C 1017.5,961.167 1017.5,1039.83 1017.5,1118.5C 1024.35,1118.18 1031.02,1118.51 1037.5,1119.5C 1030.83,1119.5 1024.17,1119.5 1017.5,1119.5C 1016.17,1040.5 1016.17,961.5 1017.5,882.5 Z"/></g>
<g><path style="opacity:1" fill="#d3d3d3" d="M 356.5,881.5 C 356.833,881.5 357.167,881.5 357.5,881.5C 363.5,881.5 369.5,881.5 375.5,881.5C 375.5,960.167 375.5,1038.83 375.5,1117.5C 374.501,1039.34 374.167,961.002 374.5,882.5C 368.31,882.823 362.31,882.49 356.5,881.5 Z"/></g>
<g><path style="opacity:1" fill="#dcdcdc" d="M 216.5,882.5 C 217.499,961.332 217.833,1040.33 217.5,1119.5C 208.833,1119.5 200.167,1119.5 191.5,1119.5C 199.65,1118.51 207.983,1118.17 216.5,1118.5C 216.5,1039.83 216.5,961.167 216.5,882.5 Z"/></g>
<g><path style="opacity:1" fill="#bbbbbb" d="M 283.5,882.5 C 276.5,882.5 269.5,882.5 262.5,882.5C 262.5,961.167 262.5,1039.83 262.5,1118.5C 271.017,1118.17 279.35,1118.51 287.5,1119.5C 278.833,1119.5 270.167,1119.5 261.5,1119.5C 261.5,1040.17 261.5,960.833 261.5,881.5C 269.019,881.175 276.352,881.508 283.5,882.5 Z"/></g>
<g><path style="opacity:1" fill="#535353" d="M 323.5,910.5 C 325.223,912.78 325.889,915.447 325.5,918.5C 324.469,916.039 323.802,913.373 323.5,910.5 Z"/></g>
<g><path style="opacity:1" fill="#6f6f6f" d="M 145.5,910.5 C 145.5,923.833 145.5,937.167 145.5,950.5C 147.5,950.5 149.5,950.5 151.5,950.5C 149.393,951.468 147.059,951.802 144.5,951.5C 144.171,937.656 144.504,923.99 145.5,910.5 Z"/></g>
<g><path style="opacity:1" fill="#a1a1a1" d="M 535.5,920.5 C 536.612,922.599 537.279,924.933 537.5,927.5C 536.883,927.389 536.383,927.056 536,926.5C 535.505,924.527 535.338,922.527 535.5,920.5 Z"/></g>
<g><path style="opacity:1" fill="#fbfbfb" d="M 665.5,990.5 C 665.259,992.898 665.926,994.898 667.5,996.5C 670.108,1004.45 672.775,1012.45 675.5,1020.5C 675.723,1024.16 676.723,1027.5 678.5,1030.5C 679.301,1032.04 679.634,1033.71 679.5,1035.5C 660.007,1036.5 640.34,1036.83 620.5,1036.5C 620.5,1035.17 620.5,1033.83 620.5,1032.5C 621.738,1030.79 622.405,1028.79 622.5,1026.5C 623.924,1024.49 624.59,1022.15 624.5,1019.5C 625.167,1017.17 625.833,1014.83 626.5,1012.5C 628.074,1010.9 628.741,1008.9 628.5,1006.5C 630.745,997.425 633.412,988.425 636.5,979.5C 638.554,976.992 639.554,973.992 639.5,970.5C 640.268,968.285 640.935,965.952 641.5,963.5C 643.806,959.915 645.139,955.915 645.5,951.5C 646.167,947.833 646.833,944.167 647.5,940.5C 648.5,940.5 649.5,940.5 650.5,940.5C 655.518,957.191 660.518,973.858 665.5,990.5 Z"/></g>
<g><path style="opacity:1" fill="#9a9a9a" d="M 645.5,951.5 C 645.139,955.915 643.806,959.915 641.5,963.5C 642.256,959.233 643.589,955.233 645.5,951.5 Z"/></g>
<g><path style="opacity:1" fill="#b4b4b4" d="M 484.5,951.5 C 485.498,982.662 485.832,1014 485.5,1045.5C 482.833,1045.5 480.167,1045.5 477.5,1045.5C 477.5,1039.83 477.5,1034.17 477.5,1028.5C 478.488,1033.64 478.821,1038.97 478.5,1044.5C 480.5,1044.5 482.5,1044.5 484.5,1044.5C 484.5,1013.5 484.5,982.5 484.5,951.5 Z"/></g>
<g><path style="opacity:1" fill="#949494" d="M 639.5,970.5 C 639.554,973.992 638.554,976.992 636.5,979.5C 637.054,976.254 638.054,973.254 639.5,970.5 Z"/></g>
<g><path style="opacity:1" fill="#505050" d="M 462.5,990.5 C 462.389,991.117 462.056,991.617 461.5,992C 459.527,992.495 457.527,992.662 455.5,992.5C 457.657,991.593 459.99,990.927 462.5,990.5 Z"/></g>
<g><path style="opacity:1" fill="#919191" d="M 665.5,990.5 C 667.074,992.102 667.741,994.102 667.5,996.5C 665.926,994.898 665.259,992.898 665.5,990.5 Z"/></g>
<g><path style="opacity:1" fill="#919191" d="M 628.5,1006.5 C 628.741,1008.9 628.074,1010.9 626.5,1012.5C 626.259,1010.1 626.926,1008.1 628.5,1006.5 Z"/></g>
<g><path style="opacity:1" fill="#787878" d="M 624.5,1019.5 C 624.59,1022.15 623.924,1024.49 622.5,1026.5C 622.41,1023.85 623.076,1021.51 624.5,1019.5 Z"/></g>
<g><path style="opacity:1" fill="#868686" d="M 675.5,1020.5 C 677.277,1023.5 678.277,1026.84 678.5,1030.5C 676.723,1027.5 675.723,1024.16 675.5,1020.5 Z"/></g>
<g><path style="opacity:1" fill="#d8d8d8" d="M 620.5,1032.5 C 620.5,1033.83 620.5,1035.17 620.5,1036.5C 640.34,1036.83 660.007,1036.5 679.5,1035.5C 680.043,1035.56 680.376,1035.89 680.5,1036.5C 659.833,1037.83 639.167,1037.83 618.5,1036.5C 618.994,1034.97 619.661,1033.64 620.5,1032.5 Z"/></g>
<g><path style="opacity:1" fill="#4b4b4b" d="M 538.5,1052.5 C 540.607,1051.53 542.941,1051.2 545.5,1051.5C 545.831,1076.34 545.498,1101.01 544.5,1125.5C 544.5,1101.17 544.5,1076.83 544.5,1052.5C 542.5,1052.5 540.5,1052.5 538.5,1052.5 Z"/></g>
<g><path style="opacity:1" fill="#9a9a9a" d="M 915.5,1072.5 C 915.59,1075.15 914.924,1077.49 913.5,1079.5C 913.41,1076.85 914.076,1074.51 915.5,1072.5 Z"/></g>
<g><path style="opacity:1" fill="#a2a2a2" d="M 600.5,1098.5 C 600.414,1102.86 600.08,1107.19 599.5,1111.5C 598.139,1107.07 598.473,1102.74 600.5,1098.5 Z"/></g>
<g><path style="opacity:1" fill="#4b4b4b" d="M 504.5,1114.5 C 504.389,1115.12 504.056,1115.62 503.5,1116C 498.22,1117.09 492.887,1117.59 487.5,1117.5C 493.056,1116.58 498.723,1115.58 504.5,1114.5 Z"/></g>
<g><path style="opacity:1" fill="#727272" d="M 421.5,1003.5 C 421.5,1041.5 421.5,1079.5 421.5,1117.5C 443.167,1117.5 464.833,1117.5 486.5,1117.5C 464.673,1118.5 442.673,1118.83 420.5,1118.5C 420.168,1080 420.501,1041.66 421.5,1003.5 Z"/></g>
<g><path style="opacity:1" fill="#999999" d="M 800.5,1118.5 C 795.36,1119.49 790.026,1119.82 784.5,1119.5C 784.5,1121.5 784.5,1123.5 784.5,1125.5C 783.532,1123.39 783.198,1121.06 783.5,1118.5C 789.167,1118.5 794.833,1118.5 800.5,1118.5 Z"/></g>
<g><path style="opacity:1" fill="#393939" d="M 191.5,1119.5 C 200.167,1119.5 208.833,1119.5 217.5,1119.5C 209.016,1120.49 200.349,1120.83 191.5,1120.5C 191.5,1122.17 191.5,1123.83 191.5,1125.5C 190.167,1123.5 190.167,1121.5 191.5,1119.5 Z"/></g>
<g><path style="opacity:1" fill="#3f3f3f" d="M 705.5,1115.5 C 706.451,1116.92 706.784,1118.59 706.5,1120.5C 698.648,1120.83 690.982,1120.49 683.5,1119.5C 690.833,1119.5 698.167,1119.5 705.5,1119.5C 705.5,1118.17 705.5,1116.83 705.5,1115.5 Z"/></g>
<g><path style="opacity:1" fill="#424242" d="M 754.5,1119.5 C 760.167,1119.5 765.833,1119.5 771.5,1119.5C 771.795,1121.74 771.461,1123.74 770.5,1125.5C 770.5,1123.83 770.5,1122.17 770.5,1120.5C 764.974,1120.82 759.64,1120.49 754.5,1119.5 Z"/></g>
<g><path style="opacity:1" fill="#424242" d="M 1017.5,1119.5 C 1024.17,1119.5 1030.83,1119.5 1037.5,1119.5C 1037.79,1121.74 1037.46,1123.74 1036.5,1125.5C 1036.5,1123.83 1036.5,1122.17 1036.5,1120.5C 1029.98,1120.82 1023.64,1120.49 1017.5,1119.5 Z"/></g>
</svg>
